PathFileType	4	(X/Y/Z)	 s03c0201.trc
DataRate	CameraRate	NumFrames	NumMarkers	Units	OrigDataRate	OrigDataStartFrame	OrigNumFrames
200	200	6	52	mm	200	1501	2000
Frame#	Time	racr			lacr			c7			jug			rlel			rdr			llel			ldr			s2			lic			ric			lasi			rasi			rpsi			lpsi			rgt			lgt			rth1			rth2			rth3			rth4			rlfc			rmfc			rsh1			rsh2			rsh3			rsh4			rlmal			rmmal			rcal			rtoe			rmt5			rmt1			lth1			lth2			lth4			lth3			llfc			lmfc			lsh1			lsh2			lsh3			lsh4			llmal			lmmal			lcal			ltoe			lmt1			lmt5			SBIKE			LBIKE			RBIKE			
		X1	Y1	Z1	X2	Y2	Z2	X3	Y3	Z3	X4	Y4	Z4	X5	Y5	Z5	X6	Y6	Z6	X7	Y7	Z7	X8	Y8	Z8	X9	Y9	Z9	X10	Y10	Z10	X11	Y11	Z11	X12	Y12	Z12	X13	Y13	Z13	X14	Y14	Z14	X15	Y15	Z15	X16	Y16	Z16	X17	Y17	Z17	X18	Y18	Z18	X19	Y19	Z19	X20	Y20	Z20	X21	Y21	Z21	X22	Y22	Z22	X23	Y23	Z23	X24	Y24	Z24	X25	Y25	Z25	X26	Y26	Z26	X27	Y27	Z27	X28	Y28	Z28	X29	Y29	Z29	X30	Y30	Z30	X31	Y31	Z31	X32	Y32	Z32	X33	Y33	Z33	X34	Y34	Z34	X35	Y35	Z35	X36	Y36	Z36	X37	Y37	Z37	X38	Y38	Z38	X39	Y39	Z39	X40	Y40	Z40	X41	Y41	Z41	X42	Y42	Z42	X43	Y43	Z43	X44	Y44	Z44	X45	Y45	Z45	X46	Y46	Z46	X47	Y47	Z47	X48	Y48	Z48	X49	Y49	Z49	X50	Y50	Z50	X51	Y51	Z51	X52	Y52	Z52	
1501	7.5050	467.356444	1426.898475	-103.886158	422.340627	1438.282658	-421.433047	372.058202	1515.275610	-256.011314	398.733874	1343.899403	-259.309349	520.011264	1187.814835	42.364639	725.026739	989.715667	-23.862393	503.966279	1182.723391	-496.272854	728.735688	979.379387	-436.361358	-120.697246	1191.711149	-217.625743	36.416272	1237.318622	-415.910575	52.278005	1231.069545	-43.130290	64.753052	1170.200537	-370.766421	85.826175	1160.291410	-87.028182	-95.570546	1242.783328	-172.803648	-94.293295	1244.215878	-254.911453	-4.843859	1106.135874	-34.347622	-2.365434	1146.414433	-426.754683	56.502503	957.319975	-19.114384	115.493192	891.077922	-19.703987	136.328377	808.490746	-33.698446	148.065618	908.209266	-26.517973	179.965424	691.972442	-69.156949	191.198884	678.437816	-181.483148	161.374932	523.258264	-36.368208	181.418607	436.602077	-48.286827	154.805056	352.205710	-49.356504	209.891096	437.663853	-73.901675	143.072058	218.275718	-68.453831	167.923526	234.602795	-152.275369	92.404185	161.180481	-106.010499	400.714539	201.456895	-108.242744	285.672983	166.432158	-36.830209	307.826539	189.476800	-150.887327	113.504234	1074.997843	-471.333620	197.818438	1065.572278	-489.927794	213.709346	1097.647818	-479.242145	268.280560	1011.394250	-503.082500	395.629705	955.990801	-507.859949	417.344541	946.593975	-377.327349	286.308340	823.511531	-499.751027	253.140142	751.604404	-466.608412	180.659119	701.414293	-446.760675	280.755008	737.250431	-443.207731	99.756232	611.255629	-406.271528	138.610111	625.037724	-320.214199	24.716079	589.658845	-350.800478	317.636404	492.906172	-356.317339	227.495518	514.924144	-310.575904	194.815901	502.775273	-425.082686	-212.710827	946.319760	-229.138615	-4.588964	83.796473	-433.025161	-8.934697	80.929249	-32.659219	
1502	7.5100	467.523249	1427.095834	-103.930681	423.039263	1438.593865	-421.417151	372.560392	1515.528702	-256.179348	399.063381	1344.390193	-259.322118	519.787305	1187.818614	42.109676	724.967931	989.734883	-24.041998	504.236956	1182.900906	-496.148262	728.895587	979.423116	-436.614747	-120.626207	1192.393941	-217.900673	36.954354	1237.654480	-416.327012	52.439452	1231.653222	-42.939294	65.033055	1170.513263	-371.101429	85.859473	1160.751977	-87.179897	-95.348608	1243.365675	-173.173085	-94.070748	1244.779918	-255.426012	-4.692695	1106.947369	-34.597611	-2.366669	1146.436076	-427.053688	56.916040	958.024059	-19.176710	116.064256	891.856226	-19.738480	136.950728	809.317641	-33.696659	148.588749	909.061448	-26.743479	180.432413	692.756133	-69.030573	191.730590	679.085397	-181.317913	161.876276	523.964037	-36.184867	182.148594	437.274214	-47.990311	155.634102	352.897604	-49.023948	210.563532	438.434851	-73.521953	144.151768	218.937455	-68.117786	168.919614	235.313626	-151.935964	93.456023	161.840068	-105.671161	401.758926	201.796505	-108.236614	286.782721	166.744207	-36.742940	308.809235	189.836643	-150.755053	113.048444	1074.453366	-471.655347	197.292173	1064.643041	-490.468482	213.386945	1096.600941	-479.873375	267.487217	1010.153963	-503.682243	394.583178	954.195306	-508.680285	416.356118	944.886064	-378.227591	284.666906	822.388095	-500.710039	251.488095	750.277861	-466.985923	178.832986	700.458801	-447.064021	279.010463	735.984472	-443.506039	97.820113	610.333459	-406.172001	136.236650	624.596366	-320.311930	22.863661	588.243129	-350.606310	316.414089	493.385357	-356.246036	226.031625	514.627973	-310.552193	193.455777	502.383179	-424.957994	-212.698254	946.356174	-229.138820	-4.592164	83.803489	-433.007883	-8.944625	80.937217	-32.648716	
1503	7.5150	467.712316	1427.351254	-103.996282	423.752454	1438.916792	-421.303813	373.012935	1515.779910	-256.363202	399.379872	1344.897658	-259.401207	519.618829	1187.849645	41.814672	724.962420	989.784068	-24.244176	504.574136	1183.075794	-495.980474	729.079628	979.465062	-436.844003	-120.489870	1193.093581	-218.231465	37.488656	1238.064787	-416.721643	52.469650	1232.275350	-43.220831	65.301325	1170.894707	-371.419775	85.885760	1161.271341	-87.329966	-95.150054	1243.883061	-173.543859	-93.934005	1245.349532	-255.953849	-4.514586	1107.650327	-34.821369	-2.406211	1146.421009	-427.379009	57.224046	958.898141	-18.809591	116.680604	892.621643	-19.834180	137.641917	810.126888	-33.583975	149.177002	909.749148	-27.204408	180.905186	693.531189	-68.863740	192.220595	679.588693	-181.113684	162.368519	524.622028	-35.892700	182.766263	438.029320	-47.599745	156.393080	353.599493	-48.659885	211.261170	439.143549	-73.200247	145.042009	219.532293	-67.911652	169.751123	235.928582	-151.546698	94.246029	162.498288	-105.400157	402.650453	201.976495	-108.210631	287.728189	167.008482	-36.633435	309.716717	190.206663	-150.614836	112.551882	1073.931225	-472.035787	196.733424	1063.732138	-490.973847	212.939101	1095.705044	-480.455219	266.904516	1008.788050	-503.889615	393.519094	952.412150	-509.525780	415.018682	943.284569	-378.742491	283.391244	820.767880	-500.718950	249.828887	749.127818	-467.424368	177.075930	699.460381	-447.319973	277.368272	734.666384	-443.829549	95.899218	609.346456	-406.102182	134.273776	623.824039	-320.304676	21.125438	586.768710	-350.380186	315.233472	493.961726	-356.158001	224.675806	514.379918	-310.513671	192.196584	501.937366	-424.756424	-212.683251	946.375530	-229.115527	-4.603469	83.828375	-432.993527	-8.950128	80.946007	-32.651468	
1504	7.5200	467.941072	1427.723829	-104.142104	424.409569	1439.258492	-421.227860	373.438261	1516.053932	-256.574764	399.773947	1345.429825	-259.512523	519.544468	1187.930923	41.516555	724.973247	989.820964	-24.502222	504.937937	1183.293341	-495.846196	729.314118	979.529767	-437.061973	-120.607861	1194.042065	-216.344292	37.968075	1238.379698	-417.097614	52.537717	1232.867183	-43.462498	65.532125	1171.177312	-371.736749	85.886633	1161.594694	-87.447442	-94.960148	1244.490825	-173.902752	-93.718781	1245.864679	-256.454897	-4.299986	1108.383307	-35.018641	-2.492910	1146.356429	-427.670334	57.775601	959.770177	-18.493529	117.153981	893.402976	-19.879966	138.240605	810.859753	-33.495654	149.734546	910.498462	-27.758740	181.365193	694.265337	-68.638857	192.702410	680.118271	-180.989316	162.899004	525.307936	-35.659530	183.375953	438.759629	-47.256976	157.122856	354.207820	-48.237560	211.885409	439.868184	-72.800473	145.930819	220.139776	-67.522625	170.515342	236.554429	-151.183119	95.080904	163.248542	-105.051042	403.493197	202.160486	-108.273954	288.559130	167.247132	-36.514903	310.471598	190.523049	-150.453749	112.073977	1073.315237	-472.358120	196.182366	1062.802667	-491.492425	212.534462	1094.699378	-481.056889	266.790377	1007.384279	-503.815274	392.484661	950.669714	-510.312176	414.147016	941.684518	-379.508513	281.777918	819.741848	-501.566290	248.234642	747.843805	-467.714163	175.421656	698.389283	-447.538436	275.789337	733.428357	-444.166100	94.092987	608.336036	-406.038169	132.374121	623.146084	-320.309763	19.460899	585.288400	-350.258678	314.198203	494.513727	-356.197817	223.422536	514.172730	-310.462746	191.076797	501.647962	-424.654363	-212.672299	946.404578	-229.092161	-4.610550	83.847197	-432.983187	-8.937968	80.966775	-32.649550	
1505	7.5250	468.107126	1428.035550	-104.307132	425.114367	1439.608729	-421.158338	373.829664	1516.356653	-256.784960	400.112487	1345.828872	-259.583209	519.571112	1188.090481	41.195230	725.034367	989.880524	-24.773092	505.324686	1183.614499	-495.684948	729.564951	979.611395	-437.211096	-120.503053	1194.605873	-216.687272	38.498999	1238.660856	-417.512807	52.568936	1233.389066	-43.695841	65.690287	1171.405033	-372.051119	85.896201	1162.000242	-87.577252	-94.812813	1244.894245	-174.280215	-93.558579	1246.324596	-256.940386	-4.081565	1109.006449	-35.177198	-2.706254	1146.446155	-427.878012	58.263461	960.345486	-18.491034	117.692097	894.135348	-19.926569	138.743229	811.543590	-33.386936	150.196980	911.279597	-27.962781	181.764490	694.848599	-68.473251	193.854382	680.391628	-180.894533	163.395417	525.889069	-35.450775	184.016940	439.284070	-46.912539	157.803306	354.718780	-47.889751	212.507111	440.386752	-72.546982	146.613535	220.694528	-67.255288	171.268423	237.090334	-150.828788	95.719075	163.868676	-104.696298	404.176527	202.242569	-108.337642	289.335487	167.384446	-36.434625	311.107603	190.744774	-150.334468	111.591853	1072.713583	-472.697471	195.602871	1061.873968	-491.939303	212.076838	1093.733538	-481.572795	266.000238	1006.191666	-504.330035	391.452029	949.083768	-511.087379	413.157446	940.105500	-380.376221	280.604069	818.158884	-501.530540	246.746901	746.652703	-467.997427	173.750626	697.423751	-447.781654	274.256845	732.203504	-444.545304	92.437574	607.368749	-405.933322	130.612040	622.560175	-320.211662	17.919425	583.850768	-350.077001	313.287548	495.232530	-356.294367	222.264374	513.997366	-310.402043	190.115464	501.167528	-424.229542	-212.655694	946.421446	-229.067444	-4.606005	83.841945	-432.973628	-8.944888	80.968880	-32.636767	
1506	7.5300	468.273890	1428.389916	-104.540143	425.696522	1439.935974	-421.026425	374.185240	1516.643476	-256.940195	400.475326	1346.274011	-259.730982	519.689463	1188.253116	40.837206	725.145068	989.951111	-25.054224	505.866381	1183.905633	-495.518067	729.863201	979.660132	-437.347356	-120.369211	1195.094123	-217.048591	38.931490	1238.930903	-417.891036	52.602110	1233.898525	-43.946730	65.941402	1171.909921	-372.020898	85.853465	1162.497147	-87.749896	-94.685562	1245.249938	-174.606085	-93.385557	1246.744297	-257.400433	-3.812225	1109.568430	-35.348752	-3.017459	1146.149150	-427.498960	58.593738	960.779691	-18.820918	118.242472	894.706268	-19.941128	139.355941	812.201779	-33.250719	150.610266	911.971669	-27.761303	182.226983	695.386934	-68.384636	194.337762	680.677454	-180.719111	164.051363	526.414803	-35.197097	184.674982	439.801014	-46.664116	158.493349	355.233497	-47.580947	213.180177	440.945875	-72.266130	147.372777	221.273101	-66.867290	171.904570	237.562599	-150.465573	96.336489	164.510473	-104.285082	404.837534	202.341757	-108.340900	290.073899	167.619986	-36.295102	311.740178	190.971280	-150.241389	111.087487	1072.143865	-473.026898	195.048259	1061.007006	-492.420042	211.647120	1092.777081	-482.158308	265.284945	1005.041715	-504.831644	390.452531	947.505967	-511.854328	412.044292	938.661608	-381.207053	279.114632	817.218244	-502.366350	245.333499	745.470756	-468.376912	172.212553	696.540707	-447.977956	272.807031	731.029649	-444.817256	90.746301	606.448512	-405.719078	129.262453	621.787381	-320.008956	16.450445	582.428613	-350.081118	312.364307	495.919520	-356.259928	221.192436	513.843490	-310.334163	189.111533	500.780495	-423.890340	-212.635147	946.424235	-229.041695	-4.614143	83.861028	-432.969178	-8.938291	80.958451	-32.629931	
